<svg width="22" height="25" viewBox="0 0 22 25" fill="none" xmlns="http://www.w3.org/2000/svg">
<g clip-path="url(#clip0_1_522)">
<path d="M21.0938 12.5C21.0938 13.1494 20.5713 13.6719 19.9219 13.6719H12.1094V21.4844C12.1094 22.1313 11.5845 22.6567 10.9375 22.6567C10.2905 22.6567 9.76562 22.1338 9.76562 21.4844V13.6719H1.95312C1.30615 13.6719 0.78125 13.1475 0.78125 12.5005C0.78125 11.8555 1.30615 11.3281 1.95312 11.3281H9.76562V3.51563C9.76562 2.86865 10.2905 2.34424 10.9375 2.34424C11.5845 2.34424 12.1094 2.86865 12.1094 3.51563V11.3281H19.9219C20.5713 11.3281 21.0938 11.8555 21.0938 12.5Z" fill="white" fill-opacity="0.8"/>
</g>
<defs>
<clipPath id="clip0_1_522">
<rect width="21.875" height="25" fill="white"/>
</clipPath>
</defs>
</svg>
